<svg width="34" height="34" viewBox="0 0 34 34" fill="none" xmlns="http://www.w3.org/2000/svg">
<path d="M12.75 11.6875H10.625C9.77962 11.6875 8.96887 12.0233 8.3711 12.6211C7.77333 13.2189 7.4375 14.0296 7.4375 14.875V27.625C7.4375 28.4704 7.77333 29.2811 8.3711 29.8789C8.96887 30.4767 9.77962 30.8125 10.625 30.8125H23.375C24.2204 30.8125 25.0311 30.4767 25.6289 29.8789C26.2267 29.2811 26.5625 28.4704 26.5625 27.625V14.875C26.5625 14.0296 26.2267 13.2189 25.6289 12.6211C25.0311 12.0233 24.2204 11.6875 23.375 11.6875H21.25M21.25 7.4375L17 3.1875M17 3.1875L12.75 7.4375M17 3.1875V21.25" stroke="black" stroke-opacity="0.96" stroke-width="1.96154" stroke-linecap="round" stroke-linejoin="round"/>
</svg>
