<svg width="64" height="64" viewBox="0 0 64 64" fill="none" xmlns="http://www.w3.org/2000/svg">
<circle cx="32.0192" cy="32.1666" r="31.5972" fill="#43936C" fill-opacity="0.2"/>
<path d="M31.4549 17.1211C23.1644 17.1211 16.4086 23.8769 16.4086 32.1674C16.4086 40.4579 23.1644 47.2137 31.4549 47.2137C39.7454 47.2137 46.5012 40.4579 46.5012 32.1674C46.5012 23.8769 39.7454 17.1211 31.4549 17.1211ZM38.647 28.7067L30.1157 37.238C29.9051 37.4486 29.6192 37.569 29.3183 37.569C29.0174 37.569 28.7315 37.4486 28.5208 37.238L24.2627 32.9799C23.8264 32.5435 23.8264 31.8213 24.2627 31.385C24.6991 30.9486 25.4213 30.9486 25.8576 31.385L29.3183 34.8456L37.0521 27.1118C37.4884 26.6755 38.2107 26.6755 38.647 27.1118C39.0833 27.5482 39.0833 28.2554 38.647 28.7067Z" fill="#43936C"/>
</svg>
